<svg xmlns="http://www.w3.org/2000/svg" width="131.163" height="40.419" viewBox="0 0 131.163 40.419">
  <path id="Path_17407" data-name="Path 17407" d="M100.626,271.1v-13.93a9.387,9.387,0,0,1,4.016-1.246h0c4.423-.1,6.025,2.847,6.025,8.032h0c0,5.109-1.729,7.525-6.838,7.525h0a12.8,12.8,0,0,1-3.2-.381M95.058,253.76c-.1.076-.177.128-.177.255h0v31.394a.3.3,0,0,0,.3.33h0l5.135-.763c.229-.051.305-.178.305-.432h0v-8.821c1.042.076,2.517.2,4.372.2h0c6,0,10.855-2.72,10.855-12.227h0c0-6.838-2.822-12.2-10.677-12.2h0a24.364,24.364,0,0,0-10.118,2.262m28.641,7.921c-.053,0-.057-.039-.055-.074h0c.216-4.049,2.2-6.143,5.383-6.008h0c3.339.14,4.352,3.919,4.267,6.077h0a.07.07,0,0,1-.058.066h0c-.023,0-2.112.149-4.807.149h0c-2.695,0-4.711-.209-4.73-.211m-5.182-3.422a19.3,19.3,0,0,0-.8,5.853h0v.939a.566.566,0,0,0,.024.187h0c.308,7.934,3.975,10.742,12.24,10.742h0a31.818,31.818,0,0,0,8.158-1.04h0a.327.327,0,0,0,.18-.431h0l-.795-3.829a.334.334,0,0,0-.308-.229h0a30.058,30.058,0,0,1-6.234.913h0c-4.2-.046-7.1-1.07-7.446-5.289h0a.031.031,0,0,1,.034-.034h0a57.259,57.259,0,0,0,6.289.223h0a47.112,47.112,0,0,0,8.74-.651h0a.331.331,0,0,0,.247-.38h0v-.026s0-1.073-.023-2.017h0c-.087-3.866-.707-11.833-10.111-11.833h0c-5.786,0-8.937,2.946-10.2,6.9M60.335,271.606c-1.856-.306-3.458-1.424-3.458-3.153h0c0-2.948,3.635-3.457,6.177-3.457h0a20.894,20.894,0,0,1,2.517.178h0v6.177a14.274,14.274,0,0,1-3.377.393h0a11.878,11.878,0,0,1-1.859-.137m-7.22-18.684a.251.251,0,0,0-.178.356h0l1.042,3.762a.218.218,0,0,0,.305.178h0a27.994,27.994,0,0,1,6.3-.966h0c3.253,0,4.982.533,4.982,3.381h0v2.034l-4.678-.05c-6.3.05-9.507,2.593-9.507,7.27h0c0,4.931,3.458,7.041,10.321,7.041h0c3.381,0,8.007-.508,9.253-.991h0a.334.334,0,0,0,.229-.381h0V258.336c0-4.931-2.822-7.041-9.558-7.041h0a26.54,26.54,0,0,0-8.516,1.627m21.531,5.466c0,5.008,4.322,6.482,7.778,7.651h0c2.212.762,4.143,1.423,4.143,2.847h0c0,2.033-2.593,2.465-4.753,2.465h0a21.82,21.82,0,0,1-6.431-1.423h0a.275.275,0,0,0-.356.254h0l-.635,4.016c-.051.306.077.356.254.432h0a26.88,26.88,0,0,0,7.728,1.348h0c1.652,0,9.863.381,9.863-7.346h0c0-4.627-4.016-6.1-7.525-7.4h0c-2.288-.865-4.321-1.6-4.321-3.152h0c0-1.042.915-2.16,3.508-2.16h0a15.062,15.062,0,0,1,5.923,1.423h0c.178.077.381.077.432-.178h0l.813-3.711a.375.375,0,0,0-.127-.433h0a16.2,16.2,0,0,0-7.041-1.729h0c-4.245,0-9.253,1.856-9.253,7.093m-49.29,2.237c0,9.939,5.059,15.353,15.557,15.353h0a22.878,22.878,0,0,0,8.617-1.348h0a.279.279,0,0,0,.2-.381h0l-1.119-4.017a.363.363,0,0,0-.432-.178h0A18.531,18.531,0,0,1,41.7,271h0c-6.915,0-10.117-3.712-10.244-10.371h0c.127-6.61,3.33-10.3,10.244-10.3h0a18.53,18.53,0,0,1,6.482.916h0a.32.32,0,0,0,.432-.255h0L49.734,247c.051-.128,0-.255-.2-.331h0a22.893,22.893,0,0,0-8.617-1.348h0c-10.5,0-15.557,5.441-15.557,15.3m129.8-4.027c.361.091.542,0,.587-.316l.75-3.612c.045-.226.045-.451-.225-.542a17.029,17.029,0,0,0-5.237-.722,16.792,16.792,0,0,0-8.894,2.3.366.366,0,0,0-.181.361v21.084a.309.309,0,0,0,.316.316h5.1a.322.322,0,0,0,.361-.316v-18a6.689,6.689,0,0,1,4.018-1.083A13.815,13.815,0,0,1,155.159,256.6Z" transform="translate(-25.356 -245.321)" fill="#0b1f8f"/>
</svg>
