<svg width="304" height="80" viewBox="0 0 304 80" fill="none" xmlns="http://www.w3.org/2000/svg">
<path d="M57.9802 0L52.3828 5.88313L0 4.93763L57.9802 0Z" fill="#D3D3D3"/>
<path d="M57.9802 0L52.3828 5.88313L0 4.93763L57.9802 0Z" fill="#D3D3D3"/>
<path d="M57.9802 0L52.3828 5.88313L0 4.93763L57.9802 0Z" fill="#D3D3D3"/>
<path d="M57.9802 0L52.3828 5.88313L72.2376 13.132L57.9802 0Z" fill="#A6A6A6"/>
<path d="M57.9802 0L52.3828 5.88313L72.2376 13.132L57.9802 0Z" fill="#A6A6A6"/>
<path d="M57.9802 0L52.3828 5.88313L72.2376 13.132L57.9802 0Z" fill="#A6A6A6"/>
<path d="M94.7855 33.7755L52.3828 5.88318L72.2376 13.132L94.7855 33.7755Z" fill="#A6A6A6"/>
<path d="M94.7855 33.7755L52.3828 5.88318L72.2376 13.132L94.7855 33.7755Z" fill="#A6A6A6"/>
<path d="M94.7855 33.7755L52.3828 5.88318L72.2376 13.132L94.7855 33.7755Z" fill="#A6A6A6"/>
<path d="M94.7855 33.7755L52.3828 5.88318L70.3366 26.3691L94.7855 33.7755Z" fill="#727272"/>
<path d="M94.7855 33.7755L52.3828 5.88318L70.3366 26.3691L94.7855 33.7755Z" fill="#727272"/>
<path d="M94.7855 33.7755L52.3828 5.88318L70.3366 26.3691L94.7855 33.7755Z" fill="#727272"/>
<path d="M94.7855 33.7755L91.6172 38.3979L70.3366 26.369L94.7855 33.7755Z" fill="#444444"/>
<path d="M94.7855 33.7755L91.6172 38.3979L70.3366 26.369L94.7855 33.7755Z" fill="#444444"/>
<path d="M94.7855 33.7755L91.6172 38.3979L70.3366 26.369L94.7855 33.7755Z" fill="#444444"/>
<path d="M94.7855 33.7755L91.6171 38.398L90.7195 56.3625L94.7855 33.7755Z" fill="#282828"/>
<path d="M94.7855 33.7755L91.6171 38.398L90.7195 56.3625L94.7855 33.7755Z" fill="#282828"/>
<path d="M94.7855 33.7755L91.6171 38.398L90.7195 56.3625L94.7855 33.7755Z" fill="#282828"/>
<path d="M88.2376 57.1504L91.6172 38.3979L90.7195 56.3625L88.2376 57.1504Z" fill="#595959"/>
<path d="M88.2376 57.1504L91.6172 38.3979L90.7195 56.3625L88.2376 57.1504Z" fill="#595959"/>
<path d="M88.2376 57.1504L91.6172 38.3979L90.7195 56.3625L88.2376 57.1504Z" fill="#595959"/>
<path d="M88.2376 57.1504L91.6172 38.3979H89.7162L88.2376 57.1504Z" fill="#A5A5A5"/>
<path d="M88.2376 57.1504L91.6172 38.3979H89.7162L88.2376 57.1504Z" fill="#A5A5A5"/>
<path d="M88.2376 57.1504L91.6172 38.3979H89.7162L88.2376 57.1504Z" fill="#A5A5A5"/>
<path d="M58.9307 15.916L52.3828 5.88318L70.3366 26.3691L58.9307 15.916Z" fill="#727272"/>
<path d="M58.9307 15.916L52.3828 5.88318L70.3366 26.3691L58.9307 15.916Z" fill="#727272"/>
<path d="M58.9307 15.916L52.3828 5.88318L70.3366 26.3691L58.9307 15.916Z" fill="#727272"/>
<path d="M58.9307 15.916L51.3268 15.6008L70.3367 26.369L58.9307 15.916Z" fill="#727272"/>
<path d="M58.9307 15.916L51.3268 15.6008L70.3367 26.369L58.9307 15.916Z" fill="#727272"/>
<path d="M58.9307 15.916L51.3268 15.6008L70.3367 26.369L58.9307 15.916Z" fill="#727272"/>
<path d="M58.9307 15.9159L52.3828 5.88313L0 4.93762L58.9307 15.9159Z" fill="#7F7F7F"/>
<path d="M58.9307 15.9159L52.3828 5.88313L0 4.93762L58.9307 15.9159Z" fill="#7F7F7F"/>
<path d="M58.9307 15.9159L52.3828 5.88313L0 4.93762L58.9307 15.9159Z" fill="#7F7F7F"/>
<path d="M16.4224 31.6218L21.1221 17.0716L0 4.93762L16.4224 31.6218Z" fill="#666666"/>
<path d="M16.4224 31.6218L21.1221 17.0716L0 4.93762L16.4224 31.6218Z" fill="#666666"/>
<path d="M16.4224 31.6218L21.1221 17.0716L0 4.93762L16.4224 31.6218Z" fill="#666666"/>
<path d="M16.4224 31.6218L9.18812 22.1142L0 4.93762L16.4224 31.6218Z" fill="#EDEDED"/>
<path d="M16.4224 31.6218L9.18812 22.1142L0 4.93762L16.4224 31.6218Z" fill="#EDEDED"/>
<path d="M16.4224 31.6218L9.18812 22.1142L0 4.93762L16.4224 31.6218Z" fill="#EDEDED"/>
<path d="M16.4224 31.6217L9.18811 22.1141L14.4158 52.7379L16.4224 31.6217Z" fill="#D3D3D3"/>
<path d="M16.4224 31.6217L9.18811 22.1141L14.4158 52.7379L16.4224 31.6217Z" fill="#D3D3D3"/>
<path d="M16.4224 31.6217L9.18811 22.1141L14.4158 52.7379L16.4224 31.6217Z" fill="#D3D3D3"/>
<path d="M16.4225 31.6218L21.1221 17.0715L23.1287 44.4386L16.4225 31.6218Z" fill="#2B2B2B"/>
<path d="M16.4225 31.6218L21.1221 17.0715L23.1287 44.4386L16.4225 31.6218Z" fill="#2B2B2B"/>
<path d="M16.4225 31.6218L21.1221 17.0715L23.1287 44.4386L16.4225 31.6218Z" fill="#2B2B2B"/>
<path d="M16.4225 31.6218L18.4819 43.283L23.1287 44.4386L16.4225 31.6218Z" fill="#A5A5A5"/>
<path d="M16.4225 31.6218L18.4819 43.283L23.1287 44.4386L16.4225 31.6218Z" fill="#A5A5A5"/>
<path d="M16.4225 31.6218L18.4819 43.283L23.1287 44.4386L16.4225 31.6218Z" fill="#A5A5A5"/>
<path d="M16.4224 31.6218L18.4818 43.283L14.4158 52.738L16.4224 31.6218Z" fill="#A5A5A5"/>
<path d="M16.4224 31.6218L18.4818 43.283L14.4158 52.738L16.4224 31.6218Z" fill="#A5A5A5"/>
<path d="M16.4224 31.6218L18.4818 43.283L14.4158 52.738L16.4224 31.6218Z" fill="#A5A5A5"/>
<path d="M33.637 62.6134L18.4818 43.2831L14.4158 52.7381L33.637 62.6134Z" fill="#939393"/>
<path d="M33.637 62.6134L18.4818 43.2831L14.4158 52.7381L33.637 62.6134Z" fill="#939393"/>
<path d="M33.637 62.6134L18.4818 43.2831L14.4158 52.7381L33.637 62.6134Z" fill="#939393"/>
<path d="M33.637 62.6133L54.3366 80L14.4158 52.738L33.637 62.6133Z" fill="#C9C9C9"/>
<path d="M33.637 62.6133L54.3366 80L14.4158 52.738L33.637 62.6133Z" fill="#C9C9C9"/>
<path d="M33.637 62.6133L54.3366 80L14.4158 52.738L33.637 62.6133Z" fill="#C9C9C9"/>
<path d="M33.637 62.6134L18.4818 43.2831L52.3828 66.7105L33.637 62.6134Z" fill="#6D6D6D"/>
<path d="M33.637 62.6134L18.4818 43.2831L52.3828 66.7105L33.637 62.6134Z" fill="#6D6D6D"/>
<path d="M33.637 62.6134L18.4818 43.2831L52.3828 66.7105L33.637 62.6134Z" fill="#6D6D6D"/>
<path d="M23.1287 44.4387L18.4818 43.2831L52.3828 66.7105L23.1287 44.4387Z" fill="#444444"/>
<path d="M23.1287 44.4387L18.4818 43.2831L52.3828 66.7105L23.1287 44.4387Z" fill="#444444"/>
<path d="M23.1287 44.4387L18.4818 43.2831L52.3828 66.7105L23.1287 44.4387Z" fill="#444444"/>
<path d="M33.637 62.6133L54.3366 80L52.3828 66.7105L33.637 62.6133Z" fill="#7F7F7F"/>
<path d="M33.637 62.6133L54.3366 80L52.3828 66.7105L33.637 62.6133Z" fill="#7F7F7F"/>
<path d="M33.637 62.6133L54.3366 80L52.3828 66.7105L33.637 62.6133Z" fill="#7F7F7F"/>
<path d="M58.8779 71.1753L54.3366 80L52.3828 66.7104L58.8779 71.1753Z" fill="#757575"/>
<path d="M58.8779 71.1753L54.3366 80L52.3828 66.7104L58.8779 71.1753Z" fill="#757575"/>
<path d="M58.8779 71.1753L54.3366 80L52.3828 66.7104L58.8779 71.1753Z" fill="#757575"/>
<path d="M77.6238 65.0821L54.3366 80L89.769 61.4052L77.6238 65.0821Z" fill="#212121"/>
<path d="M77.6238 65.0821L54.3366 80L89.769 61.4052L77.6238 65.0821Z" fill="#212121"/>
<path d="M77.6238 65.0821L54.3366 80L89.769 61.4052L77.6238 65.0821Z" fill="#212121"/>
<path d="M77.6237 65.0821L90.561 57.0453L89.769 61.4051L77.6237 65.0821Z" fill="#3A3A3A"/>
<path d="M77.6237 65.0821L90.561 57.0453L89.769 61.4051L77.6237 65.0821Z" fill="#3A3A3A"/>
<path d="M77.6237 65.0821L90.561 57.0453L89.769 61.4051L77.6237 65.0821Z" fill="#3A3A3A"/>
<path d="M77.6238 65.0822L54.3366 80.0001L58.8779 71.1754L77.6238 65.0822Z" fill="#3A3A3A"/>
<path d="M77.6238 65.0822L54.3366 80.0001L58.8779 71.1754L77.6238 65.0822Z" fill="#3A3A3A"/>
<path d="M77.6238 65.0822L54.3366 80.0001L58.8779 71.1754L77.6238 65.0822Z" fill="#3A3A3A"/>
<path d="M77.6238 65.0822L58.0858 69.0217L58.8779 71.1754L77.6238 65.0822Z" fill="#3A3A3A"/>
<path d="M77.6238 65.0822L58.0858 69.0217L58.8779 71.1754L77.6238 65.0822Z" fill="#3A3A3A"/>
<path d="M77.6238 65.0822L58.0858 69.0217L58.8779 71.1754L77.6238 65.0822Z" fill="#3A3A3A"/>
<path d="M52.3828 66.7104L58.0858 69.0217L58.8779 71.1753L52.3828 66.7104Z" fill="#191919"/>
<path d="M52.3828 66.7104L58.0858 69.0217L58.8779 71.1753L52.3828 66.7104Z" fill="#191919"/>
<path d="M52.3828 66.7104L58.0858 69.0217L58.8779 71.1753L52.3828 66.7104Z" fill="#191919"/>
<path d="M77.6238 65.0821L58.0858 69.0216L90.5611 57.0453L77.6238 65.0821Z" fill="#595959"/>
<path d="M77.6238 65.0821L58.0858 69.0216L90.5611 57.0453L77.6238 65.0821Z" fill="#595959"/>
<path d="M77.6238 65.0821L58.0858 69.0216L90.5611 57.0453L77.6238 65.0821Z" fill="#595959"/>
<path d="M58.9307 15.9159L51.3267 15.6008L0 4.93762L58.9307 15.9159Z" fill="#292929"/>
<path d="M58.9307 15.9159L51.3267 15.6008L0 4.93762L58.9307 15.9159Z" fill="#292929"/>
<path d="M58.9307 15.9159L51.3267 15.6008L0 4.93762L58.9307 15.9159Z" fill="#292929"/>
<path d="M38.3366 18.3848V24.8982L27.5116 20.7485L38.3366 18.3848Z" fill="#013A01"/>
<path d="M38.3366 18.3848V24.8982L27.5116 20.7485L38.3366 18.3848Z" fill="#013A01"/>
<path d="M38.3366 18.3848V24.8982L27.5116 20.7485L38.3366 18.3848Z" fill="#013A01"/>
<path d="M38.3366 18.3848V24.8982L59.7756 30.046L38.3366 18.3848Z" fill="#003500"/>
<path d="M38.3366 18.3848V24.8982L59.7756 30.046L38.3366 18.3848Z" fill="#003500"/>
<path d="M38.3366 18.3848V24.8982L59.7756 30.046L38.3366 18.3848Z" fill="#003500"/>
<path d="M27.5116 30.5186L38.3366 24.8981L27.5116 20.7484V30.5186Z" fill="#013F01"/>
<path d="M27.5116 30.5186L38.3366 24.8981L27.5116 20.7484V30.5186Z" fill="#013F01"/>
<path d="M27.5116 30.5186L38.3366 24.8981L27.5116 20.7484V30.5186Z" fill="#013F01"/>
<path d="M27.5116 30.5187V45.4891L38.3366 24.8982L27.5116 30.5187Z" fill="#148400"/>
<path d="M27.5116 30.5187V45.4891L38.3366 24.8982L27.5116 30.5187Z" fill="#148400"/>
<path d="M27.5116 30.5187V45.4891L38.3366 24.8982L27.5116 30.5187Z" fill="#148400"/>
<path d="M57.2409 66.5528L27.5116 45.4891L46.5743 50.2692L57.2409 66.5528Z" fill="#00C900"/>
<path d="M57.2409 66.5528L27.5116 45.4891L46.5743 50.2692L57.2409 66.5528Z" fill="#00C900"/>
<path d="M57.2409 66.5528L27.5116 45.4891L46.5743 50.2692L57.2409 66.5528Z" fill="#00C900"/>
<path d="M57.2409 66.5528L85.1749 54.4188L71.1815 53.736L57.2409 66.5528Z" fill="#0D6600"/>
<path d="M57.2409 66.5528L85.1749 54.4188L71.1815 53.736L57.2409 66.5528Z" fill="#0D6600"/>
<path d="M57.2409 66.5528L85.1749 54.4188L71.1815 53.736L57.2409 66.5528Z" fill="#0D6600"/>
<path d="M60.8845 49.3763L77.6238 43.2831L71.1815 53.7361L60.8845 49.3763Z" fill="#009900"/>
<path d="M60.8845 49.3763L77.6238 43.2831L71.1815 53.7361L60.8845 49.3763Z" fill="#009900"/>
<path d="M60.8845 49.3763L77.6238 43.2831L71.1815 53.7361L60.8845 49.3763Z" fill="#009900"/>
<path d="M60.8845 49.3761L77.6238 43.2829L68.3828 33.145L60.8845 49.3761Z" fill="#00A600"/>
<path d="M60.8845 49.3761L77.6238 43.2829L68.3828 33.145L60.8845 49.3761Z" fill="#00A600"/>
<path d="M60.8845 49.3761L77.6238 43.2829L68.3828 33.145L60.8845 49.3761Z" fill="#00A600"/>
<path d="M88.2376 38.3978L77.6238 43.2829L68.3828 33.145L88.2376 38.3978Z" fill="#008C00"/>
<path d="M88.2376 38.3978L77.6238 43.2829L68.3828 33.145L88.2376 38.3978Z" fill="#008C00"/>
<path d="M88.2376 38.3978L77.6238 43.2829L68.3828 33.145L88.2376 38.3978Z" fill="#008C00"/>
<path d="M60.8845 49.3763L45.3597 37.6626L46.5743 50.2693L60.8845 49.3763Z" fill="#00EF00"/>
<path d="M60.8845 49.3763L45.3597 37.6626L46.5743 50.2693L60.8845 49.3763Z" fill="#00EF00"/>
<path d="M60.8845 49.3763L45.3597 37.6626L46.5743 50.2693L60.8845 49.3763Z" fill="#00EF00"/>
<path d="M60.8845 49.3763L45.3597 37.6626L57.2409 33.7755L60.8845 49.3763Z" fill="#00FF00"/>
<path d="M60.8845 49.3763L45.3597 37.6626L57.2409 33.7755L60.8845 49.3763Z" fill="#00FF00"/>
<path d="M60.8845 49.3763L45.3597 37.6626L57.2409 33.7755L60.8845 49.3763Z" fill="#00FF00"/>
<path d="M60.8845 49.3763L59.7756 30.046L57.2409 33.7755L60.8845 49.3763Z" fill="#6CFF6C"/>
<path d="M60.8845 49.3763L59.7756 30.046L57.2409 33.7755L60.8845 49.3763Z" fill="#6CFF6C"/>
<path d="M60.8845 49.3763L59.7756 30.046L57.2409 33.7755L60.8845 49.3763Z" fill="#6CFF6C"/>
<path d="M38.3366 24.8982L59.7756 30.0459L57.2409 33.7754L38.3366 24.8982Z" fill="#A5F9A5"/>
<path d="M38.3366 24.8982L59.7756 30.0459L57.2409 33.7754L38.3366 24.8982Z" fill="#A5F9A5"/>
<path d="M38.3366 24.8982L59.7756 30.0459L57.2409 33.7754L38.3366 24.8982Z" fill="#A5F9A5"/>
<path d="M46.5743 50.2693L27.5116 45.4893L45.3598 37.6626L46.5743 50.2693Z" fill="#00D800"/>
<path d="M46.5743 50.2693L27.5116 45.4893L45.3598 37.6626L46.5743 50.2693Z" fill="#00D800"/>
<path d="M46.5743 50.2693L27.5116 45.4893L45.3598 37.6626L46.5743 50.2693Z" fill="#00D800"/>
<path d="M57.2409 33.7754L38.3366 24.8982L45.3597 37.6625L57.2409 33.7754Z" fill="#00E200"/>
<path d="M57.2409 33.7754L38.3366 24.8982L45.3597 37.6625L57.2409 33.7754Z" fill="#00E200"/>
<path d="M57.2409 33.7754L38.3366 24.8982L45.3597 37.6625L57.2409 33.7754Z" fill="#00E200"/>
<path d="M27.5116 45.4891L38.3366 24.8982L45.3598 37.6625L27.5116 45.4891Z" fill="#00CC00"/>
<path d="M27.5116 45.4891L38.3366 24.8982L45.3598 37.6625L27.5116 45.4891Z" fill="#00CC00"/>
<path d="M27.5116 45.4891L38.3366 24.8982L45.3598 37.6625L27.5116 45.4891Z" fill="#00CC00"/>
<path d="M46.5742 50.2692L57.2409 66.5528L60.8845 49.3762L46.5742 50.2692Z" fill="#00E200"/>
<path d="M46.5742 50.2692L57.2409 66.5528L60.8845 49.3762L46.5742 50.2692Z" fill="#00E200"/>
<path d="M46.5742 50.2692L57.2409 66.5528L60.8845 49.3762L46.5742 50.2692Z" fill="#00E200"/>
<path d="M71.1815 53.736L57.2409 66.5528L60.8845 49.3762L71.1815 53.736Z" fill="#008C00"/>
<path d="M71.1815 53.736L57.2409 66.5528L60.8845 49.3762L71.1815 53.736Z" fill="#008C00"/>
<path d="M71.1815 53.736L57.2409 66.5528L60.8845 49.3762L71.1815 53.736Z" fill="#008C00"/>
<path d="M71.1815 53.7361L85.1749 54.419L77.6238 43.2831L71.1815 53.7361Z" fill="#008200"/>
<path d="M71.1815 53.7361L85.1749 54.419L77.6238 43.2831L71.1815 53.7361Z" fill="#008200"/>
<path d="M71.1815 53.7361L85.1749 54.419L77.6238 43.2831L71.1815 53.7361Z" fill="#008200"/>
<path d="M77.6237 43.283L88.2376 38.3979L85.1749 54.419L77.6237 43.283Z" fill="#0C7A00"/>
<path d="M77.6237 43.283L88.2376 38.3979L85.1749 54.419L77.6237 43.283Z" fill="#0C7A00"/>
<path d="M77.6237 43.283L88.2376 38.3979L85.1749 54.419L77.6237 43.283Z" fill="#0C7A00"/>
<path d="M38.3366 18.3848L59.5644 26.9468L59.7756 30.046L38.3366 18.3848Z" fill="#002800"/>
<path d="M38.3366 18.3848L59.5644 26.9468L59.7756 30.046L38.3366 18.3848Z" fill="#002800"/>
<path d="M38.3366 18.3848L59.5644 26.9468L59.7756 30.046L38.3366 18.3848Z" fill="#002800"/>
<path d="M88.2376 38.398L69.4389 30.8865L68.3828 33.1452L88.2376 38.398Z" fill="#002800"/>
<path d="M88.2376 38.398L69.4389 30.8865L68.3828 33.1452L88.2376 38.398Z" fill="#002800"/>
<path d="M88.2376 38.398L69.4389 30.8865L68.3828 33.1452L88.2376 38.398Z" fill="#002800"/>
<path d="M60.8845 49.3763L68.3828 33.1452L59.7756 30.046L60.8845 49.3763Z" fill="#031600"/>
<path d="M60.8845 49.3763L68.3828 33.1452L59.7756 30.046L60.8845 49.3763Z" fill="#031600"/>
<path d="M60.8845 49.3763L68.3828 33.1452L59.7756 30.046L60.8845 49.3763Z" fill="#031600"/>
<path d="M69.4389 30.8865L68.3828 33.1452L59.7756 30.046L69.4389 30.8865Z" fill="#020C00"/>
<path d="M69.4389 30.8865L68.3828 33.1452L59.7756 30.046L69.4389 30.8865Z" fill="#020C00"/>
<path d="M69.4389 30.8865L68.3828 33.1452L59.7756 30.046L69.4389 30.8865Z" fill="#020C00"/>
<path d="M69.439 30.8864L59.5644 26.9468L59.7756 30.0459L69.439 30.8864Z" fill="#020C00"/>
<path d="M69.439 30.8864L59.5644 26.9468L59.7756 30.0459L69.439 30.8864Z" fill="#020C00"/>
<path d="M69.439 30.8864L59.5644 26.9468L59.7756 30.0459L69.439 30.8864Z" fill="#020C00"/>
<path d="M38.3366 18.3847L21.1221 17.0715L28.4092 14.0249L38.3366 18.3847Z" fill="#111111"/>
<path d="M38.3366 18.3847L21.1221 17.0715L28.4092 14.0249L38.3366 18.3847Z" fill="#111111"/>
<path d="M38.3366 18.3847L21.1221 17.0715L28.4092 14.0249L38.3366 18.3847Z" fill="#111111"/>
<path d="M0 4.93762L21.1221 17.0716L28.4092 14.025L0 4.93762Z" fill="#161616"/>
<path d="M0 4.93762L21.1221 17.0716L28.4092 14.025L0 4.93762Z" fill="#161616"/>
<path d="M0 4.93762L21.1221 17.0716L28.4092 14.025L0 4.93762Z" fill="#161616"/>
<path d="M51.3267 15.6008L0 4.93762L28.4092 14.025L51.3267 15.6008Z" fill="#111111"/>
<path d="M51.3267 15.6008L0 4.93762L28.4092 14.025L51.3267 15.6008Z" fill="#111111"/>
<path d="M51.3267 15.6008L0 4.93762L28.4092 14.025L51.3267 15.6008Z" fill="#111111"/>
<path d="M38.3366 18.3847L51.3267 15.6007L28.4092 14.0249L38.3366 18.3847Z" fill="#161616"/>
<path d="M38.3366 18.3847L51.3267 15.6007L28.4092 14.0249L38.3366 18.3847Z" fill="#161616"/>
<path d="M38.3366 18.3847L51.3267 15.6007L28.4092 14.0249L38.3366 18.3847Z" fill="#161616"/>
<path d="M38.3366 18.3848L51.3267 15.6008L59.5644 26.9469L38.3366 18.3848Z" fill="#0F0F0F"/>
<path d="M38.3366 18.3848L51.3267 15.6008L59.5644 26.9469L38.3366 18.3848Z" fill="#0F0F0F"/>
<path d="M38.3366 18.3848L51.3267 15.6008L59.5644 26.9469L38.3366 18.3848Z" fill="#0F0F0F"/>
<path d="M70.3367 26.369L51.3268 15.6008L59.5644 26.9469L70.3367 26.369Z" fill="#0C0C0C"/>
<path d="M70.3367 26.369L51.3268 15.6008L59.5644 26.9469L70.3367 26.369Z" fill="#0C0C0C"/>
<path d="M70.3367 26.369L51.3268 15.6008L59.5644 26.9469L70.3367 26.369Z" fill="#0C0C0C"/>
<path d="M70.3366 26.369L69.439 30.8864L59.5644 26.9468L70.3366 26.369Z" fill="#111111"/>
<path d="M70.3366 26.369L69.439 30.8864L59.5644 26.9468L70.3366 26.369Z" fill="#111111"/>
<path d="M70.3366 26.369L69.439 30.8864L59.5644 26.9468L70.3366 26.369Z" fill="#111111"/>
<path d="M38.3366 18.3847L21.1221 17.0715L27.5115 20.7485L38.3366 18.3847Z" fill="#010600"/>
<path d="M38.3366 18.3847L21.1221 17.0715L27.5115 20.7485L38.3366 18.3847Z" fill="#010600"/>
<path d="M38.3366 18.3847L21.1221 17.0715L27.5115 20.7485L38.3366 18.3847Z" fill="#010600"/>
<path d="M23.1287 44.4386L21.1221 17.0715L27.5115 20.7485L23.1287 44.4386Z" fill="#141414"/>
<path d="M23.1287 44.4386L21.1221 17.0715L27.5115 20.7485L23.1287 44.4386Z" fill="#141414"/>
<path d="M23.1287 44.4386L21.1221 17.0715L27.5115 20.7485L23.1287 44.4386Z" fill="#141414"/>
<path d="M23.1287 44.4385L27.5115 45.4891V20.7484L23.1287 44.4385Z" fill="#0F0F0F"/>
<path d="M23.1287 44.4385L27.5115 45.4891V20.7484L23.1287 44.4385Z" fill="#0F0F0F"/>
<path d="M23.1287 44.4385L27.5115 45.4891V20.7484L23.1287 44.4385Z" fill="#0F0F0F"/>
<path d="M23.1287 44.4386L27.5115 45.4892L52.3828 66.7104L23.1287 44.4386Z" fill="#191919"/>
<path d="M23.1287 44.4386L27.5115 45.4892L52.3828 66.7104L23.1287 44.4386Z" fill="#191919"/>
<path d="M23.1287 44.4386L27.5115 45.4892L52.3828 66.7104L23.1287 44.4386Z" fill="#191919"/>
<path d="M57.2409 66.5528L27.5116 45.4891L52.3829 66.7104L57.2409 66.5528Z" fill="#191919"/>
<path d="M57.2409 66.5528L27.5116 45.4891L52.3829 66.7104L57.2409 66.5528Z" fill="#191919"/>
<path d="M57.2409 66.5528L27.5116 45.4891L52.3829 66.7104L57.2409 66.5528Z" fill="#191919"/>
<path d="M57.2409 66.5529L58.0858 69.0217L52.3828 66.7104L57.2409 66.5529Z" fill="#191919"/>
<path d="M57.2409 66.5529L58.0858 69.0217L52.3828 66.7104L57.2409 66.5529Z" fill="#191919"/>
<path d="M57.2409 66.5529L58.0858 69.0217L52.3828 66.7104L57.2409 66.5529Z" fill="#191919"/>
<path d="M57.2409 66.5529L58.0858 69.0217L85.1749 54.4189L57.2409 66.5529Z" fill="#212121"/>
<path d="M57.2409 66.5529L58.0858 69.0217L85.1749 54.4189L57.2409 66.5529Z" fill="#212121"/>
<path d="M57.2409 66.5529L58.0858 69.0217L85.1749 54.4189L57.2409 66.5529Z" fill="#212121"/>
<path d="M70.3366 26.369L69.4389 30.8864L88.2376 38.3979L70.3366 26.369Z" fill="#0C0C0C"/>
<path d="M70.3366 26.369L69.4389 30.8864L88.2376 38.3979L70.3366 26.369Z" fill="#0C0C0C"/>
<path d="M70.3366 26.369L69.4389 30.8864L88.2376 38.3979L70.3366 26.369Z" fill="#0C0C0C"/>
<path d="M70.3366 26.369L89.7162 38.3979H91.6172L70.3366 26.369Z" fill="#595959"/>
<path d="M70.3366 26.369L89.7162 38.3979H91.6172L70.3366 26.369Z" fill="#595959"/>
<path d="M70.3366 26.369L89.7162 38.3979H91.6172L70.3366 26.369Z" fill="#595959"/>
<path d="M70.3366 26.369L89.7162 38.3979H88.2376L70.3366 26.369Z" fill="#111111"/>
<path d="M70.3366 26.369L89.7162 38.3979H88.2376L70.3366 26.369Z" fill="#111111"/>
<path d="M70.3366 26.369L89.7162 38.3979H88.2376L70.3366 26.369Z" fill="#111111"/>
<path d="M85.1749 54.419L89.7162 38.3979H88.2376L85.1749 54.419Z" fill="#0A0A0A"/>
<path d="M85.1749 54.419L89.7162 38.3979H88.2376L85.1749 54.419Z" fill="#0A0A0A"/>
<path d="M85.1749 54.419L89.7162 38.3979H88.2376L85.1749 54.419Z" fill="#0A0A0A"/>
<path d="M85.1749 54.419L89.7162 38.3979L88.2376 57.1504L85.1749 54.419Z" fill="#111111"/>
<path d="M85.1749 54.419L89.7162 38.3979L88.2376 57.1504L85.1749 54.419Z" fill="#111111"/>
<path d="M85.1749 54.419L89.7162 38.3979L88.2376 57.1504L85.1749 54.419Z" fill="#111111"/>
<path d="M88.2376 57.1504L58.0858 69.0217L85.1749 54.4189L88.2376 57.1504Z" fill="#353535"/>
<path d="M88.2376 57.1504L58.0858 69.0217L85.1749 54.4189L88.2376 57.1504Z" fill="#353535"/>
<path d="M88.2376 57.1504L58.0858 69.0217L85.1749 54.4189L88.2376 57.1504Z" fill="#353535"/>
<path d="M88.2376 57.1504L58.0858 69.0216L90.5611 57.0453L88.2376 57.1504Z" fill="#AFAFAF"/>
<path d="M88.2376 57.1504L58.0858 69.0216L90.5611 57.0453L88.2376 57.1504Z" fill="#AFAFAF"/>
<path d="M88.2376 57.1504L58.0858 69.0216L90.5611 57.0453L88.2376 57.1504Z" fill="#AFAFAF"/>
<path d="M88.2376 57.1503L90.7195 56.3624L90.5611 57.0453L88.2376 57.1503Z" fill="#353535"/>
<path d="M88.2376 57.1503L90.7195 56.3624L90.5611 57.0453L88.2376 57.1503Z" fill="#353535"/>
<path d="M88.2376 57.1503L90.7195 56.3624L90.5611 57.0453L88.2376 57.1503Z" fill="#353535"/>
<path d="M200.132 41.1818H220.515L221.729 34.4583H194.535L191.525 51.3197H211.908L211.327 54.734H190.944L189.729 61.5101H216.924L219.934 44.5961H199.551L200.132 41.1818Z" fill="#00FF00"/>
<path d="M257.267 41.1818H277.65L278.812 34.4583H251.617L246.865 61.5101H274.059L275.221 54.734H254.891L255.419 51.3197H275.855L277.016 44.5961H256.634L257.267 41.1818Z" fill="#00FF00"/>
<path d="M304 34.4583H280.185L279.023 41.1818H295.974L295.393 44.5961H278.389L277.175 51.3197H289.109L292.383 61.5101H299.195L295.921 51.3197H300.99L304 34.4583Z" fill="#00FF00"/>
<path d="M234.878 44.5962H228.066L225.109 61.5102H245.492L246.706 54.7341H233.135L234.878 44.5962Z" fill="#00FF00"/>
<path d="M223.102 34.4583L221.888 41.1818H249.083L250.297 34.4583H223.102Z" fill="#00FF00"/>
<path d="M164.172 44.5962L161.162 61.5102H167.974L170.983 44.5962H164.172Z" fill="#00FF00"/>
<path d="M193.162 34.4583H165.967L164.752 41.1818H185.188L181.597 61.5101H188.356L193.162 34.4583Z" fill="#00FF00"/>
<path d="M164.647 34.4583H137.452L136.238 41.1818H156.62L154.244 54.734H140.62L142.416 44.5961H135.604L132.647 61.5101H159.842L164.647 34.4583Z" fill="#00FF00"/>
<path d="M136.079 34.4583H102.073L100.858 41.1818H114.482L110.891 61.5101H117.703L121.294 41.1818H128.053L124.462 61.5101H131.274L136.079 34.4583Z" fill="#00FF00"/>
<path d="M100.277 44.5962L97.2673 61.5102H104.079L107.089 44.5962H100.277Z" fill="#00FF00"/>
</svg>
